{"title":"Harry.Brown.2009.DVDRiP.x264.AC3.NORDIC.mkv.Zen_Bud","uid":5837760,"size":833940902,"categoryP":"video","categoryS":"movies","magnet":"?xt=urn:btih:ac1380618d8edeee0a080c863d2b9693e0803c55&amp;dn=Harry.Brown.2009.DVDRiP.x264.AC3.NORDIC.mkv.Zen_Bud&amp;tr=udp%3A%2F%2Ftracker.openbittorrent.com%3A80&amp;tr=udp%3A%2F%2Fopen.demonii.com%3A1337&amp;tr=udp%3A%2F%2Ftracker.coppersurfer.tk%3A6969&amp;tr=udp%3A%2F%2Fexodus.desync.com%3A6969","seeders":0,"leechers":0,"uploader":"Zen_Bud","files":-1,"time":1284796953,"description":"\n****** Harry.Brown.2009.DVDRiP.x264.AC3.NORDIC.mkv.Zen_Bud ******\n\nFormat                           : Matroska\nFile size                        : 795 MiB\nDuration                         : 1h 38mn\nOverall bit rate                 : 1 128 Kbps\nWriting application              : HandBrake svn3523\nWriting library                  : libmkv 0.6.4.1\n\nVideo\n\nFormat                           : AVC\nDuration                         : 1h 38mn\nBit rate                         : 658 Kbps\nWidth                            : 720 pixels\nHeight                           : 434 pixels\nDisplay aspect ratio             : 2.35:1\nStream size                      : 464 MiB (58%)\nWriting library                  : x264 core 104\n\nAudio\n\nFormat                           : AC-3\nDuration                         : 1h 38mn\nBit rate                         : 448 Kbps\nChannel(s)                       : 6 channels\nChannel positions                : Front: L C R, Side: L R, LFE\nSampling rate                    : 48.0 KHz\nBit depth                        : 16 bits\nStream size                      : 316 MiB (40%)\nLanguage                         : English\n\nText #1\nLanguage                         : Danish\n\nText #2\nLanguage                         : Swedish\n\nText #3\nLanguage                         : Norwegian\n\nText #4\nLanguage                         : Finnish\n\nMenu\n00:00:00.000                     : Chapter  1\n00:10:00.000                     : Chapter  2\n\n","torrent":{"xt":"urn:btih:ac1380618d8edeee0a080c863d2b9693e0803c55","amp;dn":"Harry.Brown.2009.DVDRiP.x264.AC3.NORDIC.mkv.Zen_Bud","amp;tr":["udp%3A%2F%2Ftracker.openbittorrent.com%3A80","udp%3A%2F%2Fopen.demonii.com%3A1337","udp%3A%2F%2Ftracker.coppersurfer.tk%3A6969","udp%3A%2F%2Fexodus.desync.com%3A6969"],"infoHash":"ac1380618d8edeee0a080c863d2b9693e0803c55","infoHashBuffer":{"type":"Buffer","data":[172,19,128,97,141,142,222,238,10,8,12,134,61,43,150,147,224,128,60,85]},"announce":[],"urlList":[]}}